<svg id="Capa_1" data-name="Capa 1" xmlns="http://www.w3.org/2000/svg" viewBox="0 0 24.06 18.21"><defs><style>.cls-1{fill:#fff;}</style></defs><title>discord</title><path class="cls-1" d="M23.87,11.67v2.4a3.14,3.14,0,0,0-.09.75.36.36,0,0,1-.14.27A19.71,19.71,0,0,1,17.94,18c-.14.05-.2,0-.28-.1a19.49,19.49,0,0,1-1-1.68c-.11-.2-.09-.28.12-.35a10.11,10.11,0,0,0,1.56-.74c.06,0,.18-.05.12-.18a.54.54,0,0,0-.63-.22,13.84,13.84,0,0,1-11.39,0,.51.51,0,0,0-.64.09c-.15.14-.15.19,0,.29a15.61,15.61,0,0,0,1.6.76c.16.06.18.12.1.27a17.28,17.28,0,0,1-1.07,1.74c-.08.1-.14.14-.27.1a20,20,0,0,1-5.7-2.88.32.32,0,0,1-.13-.23,20.13,20.13,0,0,1,.2-5.37A20.62,20.62,0,0,1,3.74,1.63.48.48,0,0,1,4,1.43,19.3,19.3,0,0,1,8.54,0,.2.2,0,0,1,8.8.13c.15.31.32.6.45.91a.25.25,0,0,0,.34.19,14.72,14.72,0,0,1,2.09-.17,17.1,17.1,0,0,1,2.86.17.23.23,0,0,0,.3-.17c.14-.32.3-.61.45-.92A.2.2,0,0,1,15.56,0a19.9,19.9,0,0,1,4.52,1.4.58.58,0,0,1,.28.23,23.67,23.67,0,0,1,1.26,2.12,19.43,19.43,0,0,1,2.17,7.33A1.26,1.26,0,0,0,23.87,11.67ZM18.1,9.81a1.59,1.59,0,0,0,0-.35A2.49,2.49,0,0,0,18,9a2,2,0,0,0-3.33-.93,2.57,2.57,0,0,0,0,3.64,2,2,0,0,0,2.79,0A2.51,2.51,0,0,0,18.1,9.81Zm-7.85.09A2.38,2.38,0,0,0,10,8.78,2,2,0,0,0,6.82,8a2.57,2.57,0,0,0,0,3.72,2,2,0,0,0,2.76-.06A2.46,2.46,0,0,0,10.25,9.9Z"/></svg>