<svg id="Capa_1" data-name="Capa 1" xmlns="http://www.w3.org/2000/svg" viewBox="0 0 24.06 19.61"><defs><style>.cls-1{fill:#fff;}</style></defs><title>twitter</title><path class="cls-1" d="M24,2.41a9,9,0,0,1-2.17,2.3.48.48,0,0,0-.22.47,14,14,0,0,1-1.43,6.51A13.7,13.7,0,0,1,15,17.58a13.23,13.23,0,0,1-5.38,1.89,14.6,14.6,0,0,1-4.07,0,13.91,13.91,0,0,1-5.47-2l0-.06a10.1,10.1,0,0,0,7.26-2,5.66,5.66,0,0,1-1-.13,4.93,4.93,0,0,1-3.54-3.06c-.11-.25-.09-.26.18-.22a5.2,5.2,0,0,0,1.76-.08l.12,0A4.92,4.92,0,0,1,.93,6.92a4.81,4.81,0,0,0,1,.41,3.42,3.42,0,0,0,1.14.16A5,5,0,0,1,1.6.94c.09,0,.12.09.17.14a14,14,0,0,0,7.79,4.7,16.57,16.57,0,0,0,2.1.29c.18,0,.17-.05.14-.18a4.89,4.89,0,0,1,1.64-4.68,4.75,4.75,0,0,1,4-1.14,4.71,4.71,0,0,1,2.71,1.37.29.29,0,0,0,.31.08A9.89,9.89,0,0,0,23.2.5l.23-.12a5.08,5.08,0,0,1-2,2.66,3.28,3.28,0,0,0,.88-.12c.29-.07.58-.15.86-.24s.58-.2.87-.3Z"/><path class="cls-1" d="M24,2.38h.06l0,0Z"/></svg>